<svg width="32" height="33" viewBox="0 0 32 33" fill="none" xmlns="http://www.w3.org/2000/svg">
<g clip-path="url(#clip0_4_130)">
<g clip-path="url(#clip1_4_130)">
<g clip-path="url(#clip2_4_130)">
<g clip-path="url(#clip3_4_130)">
<path d="M10.6705 16.5906C11.0644 16.509 11.4761 16.3303 11.8644 16.0499C12.981 15.2422 13.4766 13.916 12.9702 13.0862C12.4196 12.1836 10.9134 12.2443 9.75601 13.2715C8.64922 14.2272 8.41309 15.2257 8.41309 16.2751C8.41309 17.0166 8.65025 18.3406 10.099 19.4904C10.7831 18.9619 11.5986 18.5271 12.5243 18.2127L12.5365 18.2082C11.8253 17.9118 10.8981 17.3268 10.6705 16.5906ZM10.4918 14.0384C10.4918 13.7284 10.7389 13.479 11.0436 13.479C11.348 13.479 11.5953 13.7295 11.5953 14.0396C11.5953 14.3496 11.348 14.5989 11.0436 14.5989C10.7389 14.5989 10.4918 14.3485 10.4918 14.0384Z" fill="#0061FF"/>
</g>
</g>
<g clip-path="url(#clip4_4_130)">
<g clip-path="url(#clip5_4_130)">
<path d="M23.6074 16.2762C23.6041 15.2257 23.3691 14.2271 22.2613 13.2715C21.1048 12.2453 19.5976 12.1825 19.047 13.0862C18.5416 13.916 19.0359 15.2423 20.1525 16.0499C20.541 16.3302 20.9526 16.5089 21.3465 16.5906C21.2097 17.0331 20.7937 17.4832 20.1593 17.8628C19.2869 18.3835 18.8157 18.4479 13.2341 20.3014C11.1686 21.0031 9.93945 22.3978 9.93945 24.032C9.93945 25.1961 10.5341 26.0943 11.3605 26.752C11.8803 26.2168 12.5292 25.7523 13.2872 25.3804C12.4144 24.9391 12.1451 24.6047 12.1451 24.032C12.1451 23.0868 14.0344 22.5464 14.906 22.2588V24.6511L17.1128 23.6668V22.2599C17.9858 22.549 19.8702 23.0887 19.8702 24.032C19.8702 25.6013 15.3767 26.5267 13.4649 27.8454C12.537 28.4887 12.038 29.3064 12.038 30.2674C12.038 30.8191 12.1021 31.5032 13.0709 32.1829C13.3456 32.4024 13.7272 32.0818 13.5488 31.7735C12.9087 30.4924 13.5884 29.8525 14.9081 29.2985V31.15C14.9081 31.7591 15.4025 32.2535 16.0115 32.2535C16.6206 32.2535 17.115 31.7591 17.115 31.15V29.2996C18.3827 29.8315 19.1806 30.5829 18.471 31.7735C18.2952 32.0759 18.6697 32.405 18.9477 32.1829C19.8856 31.4722 19.9596 30.8632 19.9596 30.2817C19.9596 29.3869 19.4697 28.5185 18.5406 27.8531C20.4186 27.1745 22.0803 26.0325 22.0803 24.0342C22.0803 22.6538 21.2032 21.4445 19.6871 20.6787C20.3953 20.4238 20.7517 20.2528 21.2251 19.9704C23.2985 18.7312 23.6074 17.1236 23.6074 16.2762ZM20.9748 14.5989C20.6701 14.5989 20.4231 14.3484 20.4231 14.0384C20.4231 13.7283 20.6701 13.4779 20.9748 13.4779C21.2792 13.4779 21.5265 13.7283 21.5265 14.0384C21.5265 14.3484 21.2792 14.5989 20.9748 14.5989Z" fill="#0061FF"/>
</g>
</g>
<g clip-path="url(#clip6_4_130)">
<g clip-path="url(#clip7_4_130)">
<path d="M31.4476 2.4647H23.8908C22.4084 2.4647 21.296 3.11999 20.339 4.07706C19.2993 5.11675 18.7587 7.42792 17.1032 7.42792V4.36333C17.7601 3.98106 18.2066 3.27743 18.2066 2.46256C18.2066 1.24377 17.2186 0.255737 15.9998 0.255737C14.7809 0.255737 13.793 1.24377 13.793 2.46256C13.793 3.27736 14.2394 3.981 14.8964 4.36333V17.5136C15.5774 17.2964 16.3248 17.057 17.1032 16.807V11.2799C17.5819 11.0397 17.9682 10.6514 18.2051 10.1708C18.5889 10.8268 19.3185 11.292 20.1318 11.292C20.9567 11.292 21.6673 10.834 22.0459 10.1638C23.3386 11.4565 25.7413 11.4814 27.0339 10.1887L25.1588 8.31361L26.019 8.66995C27.708 9.36958 29.6444 8.56747 30.3441 6.87842L27.6803 5.77501C30.2609 5.77494 31.4476 4.15561 31.4476 2.4647Z" fill="#0061FF"/>
</g>
</g>
<g clip-path="url(#clip8_4_130)">
<g clip-path="url(#clip9_4_130)">
<path d="M11.6604 4.07708C10.7034 3.12001 9.59091 2.46472 8.10848 2.46472H0.551758C0.551758 4.15556 1.73841 5.77496 4.31902 5.77496L1.65517 6.87837C2.35487 8.56742 4.29129 9.36946 5.98034 8.6699L6.84052 8.31357L4.96541 10.1887C6.25806 11.4814 8.66074 11.4565 9.95338 10.1637C10.332 10.834 11.0427 11.292 11.8675 11.292C11.8757 11.292 11.8838 11.292 11.8919 11.2919C12.9701 11.2796 13.7942 10.3057 13.7942 9.22754V7.00761C12.9245 6.29405 12.4264 4.84313 11.6604 4.07708Z" fill="#0061FF"/>
</g>
</g>
</g>
</g>
<defs>
<clipPath id="clip0_4_130">
<rect width="32" height="32" fill="white" transform="translate(0 0.255737)"/>
</clipPath>
<clipPath id="clip1_4_130">
<rect width="32" height="32" fill="white" transform="translate(0 0.255737)"/>
</clipPath>
<clipPath id="clip2_4_130">
<rect width="4.75568" height="7.03818" fill="white" transform="translate(8.41309 12.4523)"/>
</clipPath>
<clipPath id="clip3_4_130">
<rect width="4.75568" height="7.03818" fill="white" transform="translate(8.41309 12.4523)"/>
</clipPath>
<clipPath id="clip4_4_130">
<rect width="13.668" height="19.8036" fill="white" transform="translate(9.93945 12.4521)"/>
</clipPath>
<clipPath id="clip5_4_130">
<rect width="13.668" height="19.8036" fill="white" transform="translate(9.93945 12.4521)"/>
</clipPath>
<clipPath id="clip6_4_130">
<rect width="17.6546" height="17.2579" fill="white" transform="translate(13.793 0.255737)"/>
</clipPath>
<clipPath id="clip7_4_130">
<rect width="17.6546" height="17.2579" fill="white" transform="translate(13.793 0.255737)"/>
</clipPath>
<clipPath id="clip8_4_130">
<rect width="13.2425" height="8.8273" fill="white" transform="translate(0.551758 2.46472)"/>
</clipPath>
<clipPath id="clip9_4_130">
<rect width="13.2425" height="8.8273" fill="white" transform="translate(0.551758 2.46472)"/>
</clipPath>
</defs>
</svg>
