<svg width="32" height="33" viewBox="0 0 32 33" fill="none" xmlns="http://www.w3.org/2000/svg">
<g clip-path="url(#clip0_4_150)">
<g clip-path="url(#clip1_4_150)">
<path d="M6.34806 32.2558H25.6513C26.8 32.2558 27.7562 31.3772 27.7562 30.2976V6.88429C27.7562 5.8044 26.8 4.91663 25.6513 4.91663H22.4692V6.7044C22.4739 7.01472 22.229 7.27152 21.919 7.28184H10.0426C9.72632 7.27423 9.47088 7.0207 9.46056 6.7044V4.91663H6.34806C5.19941 4.91663 4.24316 5.8044 4.24316 6.88429V30.2976C4.24316 31.3772 5.19941 32.2558 6.34806 32.2558ZM10.6432 14.3079C10.6432 14.0006 10.8923 13.7514 11.1997 13.7514H14.0519V10.8992C14.0519 10.5919 14.301 10.3427 14.6084 10.3427H17.391C17.6983 10.3427 17.9475 10.5919 17.9475 10.8992V13.7514H20.7997C21.107 13.7514 21.3562 14.0006 21.3562 14.3079V17.0905C21.3562 17.3979 21.107 17.6471 20.7997 17.6471H17.9475V20.4992C17.9475 20.8066 17.6983 21.0558 17.391 21.0558H14.6084C14.301 21.0558 14.0519 20.8066 14.0519 20.4992V17.6471H11.1997C10.8923 17.6471 10.6432 17.3979 10.6432 17.0905V14.3079ZM10.8698 23.9079H21.1296C21.4372 23.9079 21.6861 24.1571 21.6861 24.4645C21.6861 24.7718 21.4372 25.021 21.1296 25.021H10.8698C10.5622 25.021 10.3133 24.7718 10.3133 24.4645C10.3133 24.1571 10.5622 23.9079 10.8698 23.9079ZM8.78284 26.6905H23.2165C23.5241 26.6905 23.7731 26.9397 23.7731 27.2471C23.7731 27.5544 23.5241 27.8036 23.2165 27.8036H8.78284C8.47523 27.8036 8.22632 27.5544 8.22632 27.2471C8.22632 26.9397 8.47523 26.6905 8.78284 26.6905Z" fill="#0061FF"/>
<path d="M21.3568 2.41226H18.7525C18.4905 2.41199 18.2639 2.22911 18.2087 1.97286C17.9935 0.978293 17.0489 0.255739 15.9625 0.255739H15.9557C14.8984 0.254652 13.9748 0.970141 13.7117 1.99405C13.6484 2.23998 13.4267 2.41199 13.1726 2.41226H10.5742V6.16878H21.3568V2.41226Z" fill="#0061FF"/>
<path d="M15.1655 17.0905V19.9426H16.8351V17.0905C16.8351 16.7831 17.0843 16.5339 17.3916 16.5339H20.2438V14.8644H17.3916C17.0843 14.8644 16.8351 14.6152 16.8351 14.3079V11.4557H15.1655V14.3079C15.1655 14.6152 14.9163 14.8644 14.609 14.8644H11.7568V16.5339H14.609C14.9163 16.5339 15.1655 16.7831 15.1655 17.0905Z" fill="#0061FF"/>
</g>
</g>
<defs>
<clipPath id="clip0_4_150">
<rect width="32" height="32" fill="white" transform="translate(0 0.255737)"/>
</clipPath>
<clipPath id="clip1_4_150">
<rect width="32" height="32" fill="white" transform="translate(0 0.255737)"/>
</clipPath>
</defs>
</svg>
