<svg width="32" height="33" viewBox="0 0 32 33" fill="none" xmlns="http://www.w3.org/2000/svg">
<g clip-path="url(#clip0_4_120)">
<g clip-path="url(#clip1_4_120)">
<g clip-path="url(#clip2_4_120)">
<path d="M15.9909 4.47398C9.01587 -1.62668 0.14723 3.73353 0.00180337 11.0002C-0.0352563 12.8521 0.499328 14.656 1.56343 16.3191H8.46066L9.68744 14.2744C10.0437 13.6807 10.9057 13.6616 11.2821 14.2534L13.8705 18.3208L17.6435 10.3557C17.9726 9.66071 18.9532 9.63865 19.3161 10.3126L22.5503 16.3191H30.4184C36.2468 7.20977 24.7279 -3.16763 15.9909 4.47398V4.47398Z" fill="#0061FF"/>
<path d="M21.1656 17.7009L18.5448 12.8337L14.8387 20.6575C14.5234 21.3232 13.5961 21.381 13.2007 20.7595L10.5152 16.5396L9.79574 17.7388C9.62631 18.0212 9.32121 18.1939 8.99192 18.1939H3.04688C3.23324 18.3889 2.24 17.3977 15.3302 30.4201C15.6958 30.7839 16.2868 30.7839 16.6525 30.4201C29.5412 17.5981 28.7498 18.3886 28.9358 18.1939H21.9909C21.646 18.194 21.329 18.0046 21.1656 17.7009V17.7009Z" fill="#0061FF"/>
</g>
</g>
</g>
<defs>
<clipPath id="clip0_4_120">
<rect width="32" height="32" fill="white" transform="translate(0 0.255737)"/>
</clipPath>
<clipPath id="clip1_4_120">
<rect width="32" height="32" fill="white" transform="translate(0 0.255737)"/>
</clipPath>
<clipPath id="clip2_4_120">
<rect width="32" height="28.8744" fill="white" transform="translate(0 1.81848)"/>
</clipPath>
</defs>
</svg>
